<?xml version="1.0" encoding="UTF-8"?>
<svg width="700pt" height="700pt" version="1.1" viewBox="0 0 700 700" xmlns="http://www.w3.org/2000/svg">
 <g>
  <path d="m444.15 391.65h-149.62v-6.6484c-0.75391-9.6328-6.332-18.227-14.824-22.836-8.4883-4.6094-18.734-4.6094-27.223 0-8.4922 4.6094-14.07 13.203-14.828 22.836v6.6484h-34.125v-6.6484c-0.75391-9.6328-6.332-18.227-14.824-22.836-8.4883-4.6094-18.734-4.6094-27.223 0-8.4922 4.6094-14.07 13.203-14.828 22.836v6.6484h-49.172l36.75-258.12h309.92zm-137.02-13.125h123.9v-231.88h-285.25l-33.25 231.88h21.352c2.1055-13.145 10.371-24.492 22.238-30.527 11.867-6.0391 25.906-6.0391 37.773 0 11.867 6.0352 20.133 17.383 22.238 30.527h8.75c2.1055-13.145 10.371-24.492 22.238-30.527 11.867-6.0391 25.906-6.0391 37.773 0 11.867 6.0352 20.133 17.383 22.238 30.527z"/>
  <path d="m601.65 391.65h-56.875v-6.6484c-0.75391-9.6328-6.332-18.227-14.824-22.836-8.4883-4.6094-18.734-4.6094-27.223 0-8.4922 4.6094-14.07 13.203-14.828 22.836v6.6484h-56.875v-100.62h170.62zm-44.273-13.125h31.148v-74.375h-144.38v74.375h30.977c2.1055-13.145 10.371-24.492 22.238-30.527 11.867-6.0391 25.906-6.0391 37.773 0 11.867 6.0352 20.133 17.383 22.238 30.527z"/>
  <path d="m569.62 304.15h-138.6v-100.62h98.352zm-125.48-13.125h106.23l-29.75-74.375h-76.477z"/>
  <path d="m437.5 304.15h-280c-1.7461 0.003906-3.4219-0.70313-4.6406-1.957-1.2188-1.25-1.8828-2.9453-1.8359-4.6914-0.046876-1.7305 0.62109-3.4062 1.8438-4.6328 1.2266-1.2227 2.9023-1.8906 4.6328-1.8438h280c1.7461-0.046876 3.4414 0.61719 4.6914 1.8359 1.2539 1.2188 1.9609 2.8945 1.957 4.6406 0 3.6719-2.9766 6.6484-6.6484 6.6484z"/>
  <path d="m516.25 426.65c-11.047 0-21.641-4.3867-29.449-12.199-7.8125-7.8086-12.199-18.402-12.199-29.449s4.3867-21.641 12.199-29.449c7.8086-7.8125 18.402-12.199 29.449-12.199s21.641 4.3867 29.449 12.199c7.8125 7.8086 12.199 18.402 12.199 29.449s-4.3867 21.641-12.199 29.449c-7.8086 7.8125-18.402 12.199-29.449 12.199zm0-70c-9.6328 0.75781-18.227 6.3359-22.836 14.828-4.6094 8.4883-4.6094 18.734 0 27.223 4.6094 8.4922 13.203 14.07 22.836 14.824 7.9297 0.625 15.758-2.0938 21.598-7.4922s9.1602-12.992 9.1602-20.945c0-7.9531-3.3203-15.543-9.1602-20.941-5.8398-5.4023-13.668-8.1172-21.598-7.4961z"/>
  <path d="m266 426.65c-11.047 0-21.641-4.3867-29.449-12.199-7.8125-7.8086-12.199-18.402-12.199-29.449s4.3867-21.641 12.199-29.449c7.8086-7.8125 18.402-12.199 29.449-12.199s21.641 4.3867 29.449 12.199c7.8125 7.8086 12.199 18.402 12.199 29.449s-4.3867 21.641-12.199 29.449c-7.8086 7.8125-18.402 12.199-29.449 12.199zm0-70c-9.6328 0.75781-18.227 6.3359-22.836 14.828-4.6094 8.4883-4.6094 18.734 0 27.223 4.6094 8.4922 13.203 14.07 22.836 14.824 7.9297 0.625 15.758-2.0938 21.598-7.4922s9.1602-12.992 9.1602-20.945c0-7.9531-3.3203-15.543-9.1602-20.941-5.8398-5.4023-13.668-8.1172-21.598-7.4961z"/>
  <path d="m175 426.65c-11.047 0-21.641-4.3867-29.449-12.199-7.8125-7.8086-12.199-18.402-12.199-29.449s4.3867-21.641 12.199-29.449c7.8086-7.8125 18.402-12.199 29.449-12.199s21.641 4.3867 29.449 12.199c7.8125 7.8086 12.199 18.402 12.199 29.449s-4.3867 21.641-12.199 29.449c-7.8086 7.8125-18.402 12.199-29.449 12.199zm0-70c-9.6328 0.75781-18.227 6.3359-22.836 14.828-4.6094 8.4883-4.6094 18.734 0 27.223 4.6094 8.4922 13.203 14.07 22.836 14.824 7.9297 0.625 15.758-2.0938 21.598-7.4922s9.1602-12.992 9.1602-20.945c0-7.9531-3.3203-15.543-9.1602-20.941-5.8398-5.4023-13.668-8.1172-21.598-7.4961z"/>
 </g>
</svg>
